<svg id="Layer_1" data-name="Layer 1" xmlns="http://www.w3.org/2000/svg" xmlns:xlink="http://www.w3.org/1999/xlink" viewBox="0 0 20 20"><defs><style>.cls-1{fill:lime;}</style><symbol id="Shopping_Cart" data-name="Shopping Cart" viewBox="0 0 66.23 59.81"><circle class="cls-1" cx="19.82" cy="54.31" r="5.5"/><circle class="cls-1" cx="49.44" cy="54.31" r="5.5"/><path class="cls-1" d="M58.94,42.81c-7.93,0-33.76.19-42.56.19a2,2,0,0,1-2-2V40h0a2.77,2.77,0,0,1,2.33-2.66l45.4-6a4.81,4.81,0,0,0,4.15-4.74V11.67a4.5,4.5,0,0,0-4.5-4.5H17a2.64,2.64,0,0,1-2.63-2.64V4c0-3,.05-4-3-4H2.65C-.54,0-1,4.8,2.14,5.22a3.44,3.44,0,0,0,.46,0l2.93-1a2.46,2.46,0,0,1,1.65,0c1,.39,2.67,1,2.67,1.08V41.25a5.5,5.5,0,0,0,5.5,5.5l43.59.06c2.14,0,3,.24,3-2C61.94,42.81,60.67,42.81,58.94,42.81Zm-23.24-10L31,33.53a2.55,2.55,0,0,1-3-2.35V12.39A2.52,2.52,0,0,1,30.56,10H34.5a2.74,2.74,0,0,1,2.85,2.61V31A1.87,1.87,0,0,1,35.7,32.79ZM43.11,10h5a2.28,2.28,0,0,1,2.28,2.28V28.41a2.46,2.46,0,0,1-2.1,2.43l-4.86.73a2.47,2.47,0,0,1-2.85-2.45V12.57A2.57,2.57,0,0,1,43.11,10ZM61.72,28.82l-6.45.89a1.88,1.88,0,0,1-2.13-1.87v-16A1.88,1.88,0,0,1,55,10h6.45a1.88,1.88,0,0,1,1.88,1.88V27A1.88,1.88,0,0,1,61.72,28.82Zm-36.37-16V31.3a2.92,2.92,0,0,1-2.75,2.8l-6.5.63a2.41,2.41,0,0,1-2.75-2.27V13.85A4,4,0,0,1,17.55,10h4.68A3,3,0,0,1,25.35,12.86Z"/></symbol></defs><title>cariinho simples</title><use width="66.23" height="59.81" transform="translate(0 0) scale(0.3 0.33)" xlink:href="#Shopping_Cart"/></svg>