<svg id="Layer_1" data-name="Layer 1" xmlns="http://www.w3.org/2000/svg" xmlns:xlink="http://www.w3.org/1999/xlink" viewBox="0 0 20 19.95"><defs><style>.cls-1{fill:lime;}</style><symbol id="Shopping_Cart_2" data-name="Shopping Cart 2" viewBox="0 0 78.22 59.81"><path class="cls-1" d="M1.57,11.65H10.5c.94,0,1.53-.51,1.54-1.29S11.44,9,10.47,9c-3,0-6,0-8.93,0A1.36,1.36,0,0,0,0,10.32C0,11.13.58,11.64,1.57,11.65Z"/><path class="cls-1" d="M1.64,24.94H14.38c1.06,0,1.65-.49,1.65-1.34s-.58-1.31-1.65-1.32H1.56a1.36,1.36,0,0,0-1.53,1C-.16,24.23.53,24.94,1.64,24.94Z"/><path class="cls-1" d="M8.08,15.65H2.91c-1,0-1.57.53-1.55,1.36S2,18.3,2.89,18.3H13.15a1.39,1.39,0,0,0,1.57-1.36,1.37,1.37,0,0,0-1.55-1.28Z"/><path class="cls-1" d="M14.41,35.56q-5,0-10.1,0c-1,0-1.6.48-1.63,1.28s.61,1.36,1.63,1.36h10.1c1.06,0,1.64-.5,1.62-1.36S15.44,35.56,14.41,35.56Z"/><path class="cls-1" d="M5.31,31.56c1.31,0,2.61,0,3.91,0,.92,0,1.44-.49,1.46-1.27a1.32,1.32,0,0,0-1.46-1.37q-3.87,0-7.74,0A1.35,1.35,0,0,0,0,30.28a1.32,1.32,0,0,0,1.47,1.27C2.76,31.57,4,31.56,5.31,31.56Z"/><path class="cls-1" d="M17.68,29a11.63,11.63,0,0,0-3.28,0,1.21,1.21,0,0,0-1,1.36,1.24,1.24,0,0,0,1.22,1.2c.46,0,.94,0,1.41,0h0c.47,0,.94,0,1.41,0A1.3,1.3,0,0,0,17.68,29Z"/><circle class="cls-1" cx="31.81" cy="54.31" r="5.5"/><circle class="cls-1" cx="61.43" cy="54.31" r="5.5"/><path class="cls-1" d="M70.93,42.81c-7.93,0-33.77.19-42.57.19a2,2,0,0,1-2-2V40h0a2.77,2.77,0,0,1,2.33-2.66l45.41-6a4.83,4.83,0,0,0,4.15-4.74V11.67a4.5,4.5,0,0,0-4.5-4.5H29a2.65,2.65,0,0,1-2.64-2.64V4c0-3,.05-4-3-4H14.64C11.45,0,11,4.8,14.12,5.22a3.55,3.55,0,0,0,.46,0l2.94-1a2.46,2.46,0,0,1,1.65,0c1,.39,2.66,1,2.66,1.08V41.25a5.51,5.51,0,0,0,5.5,5.5l43.6.06c2.13,0,3,.24,3-2C73.93,42.81,72.66,42.81,70.93,42.81Zm-23.24-10L43,33.53a2.55,2.55,0,0,1-3-2.35V12.39A2.51,2.51,0,0,1,42.55,10h3.93a2.74,2.74,0,0,1,2.85,2.61V31A1.86,1.86,0,0,1,47.69,32.79ZM55.1,10h4.95a2.28,2.28,0,0,1,2.28,2.28V28.41a2.46,2.46,0,0,1-2.09,2.43l-4.87.73a2.47,2.47,0,0,1-2.84-2.45V12.57A2.57,2.57,0,0,1,55.1,10ZM73.71,28.82l-6.45.89a1.89,1.89,0,0,1-2.14-1.87v-16A1.88,1.88,0,0,1,67,10h6.45a1.88,1.88,0,0,1,1.88,1.88V27A1.88,1.88,0,0,1,73.71,28.82Zm-36.38-16V31.3a2.91,2.91,0,0,1-2.74,2.8l-6.5.63a2.42,2.42,0,0,1-2.76-2.27V13.85A4,4,0,0,1,29.53,10h4.68A3,3,0,0,1,37.33,12.86Z"/></symbol></defs><title>carrinho correndo</title><use width="78.22" height="59.81" transform="translate(0) scale(0.26 0.33)" xlink:href="#Shopping_Cart_2"/></svg>