<svg id="Layer_1" data-name="Layer 1" xmlns="http://www.w3.org/2000/svg" xmlns:xlink="http://www.w3.org/1999/xlink" viewBox="0 0 20 20"><defs><style>.cls-1{fill:lime;}.cls-2{fill:url(#linear-gradient);}.cls-3{fill:url(#linear-gradient-2);}.cls-4{fill:#6aff8f;}.cls-5{fill:#9dff5e;}.cls-6{fill:url(#linear-gradient-3);}</style><linearGradient id="linear-gradient" x1="-534.87" y1="1293.89" x2="-527.9" y2="1293.89" gradientTransform="translate(-963.4 -998.15) rotate(-66.57)" gradientUnits="userSpaceOnUse"><stop offset="0" stop-color="#006837"/><stop offset="0.44" stop-color="#7ac943"/></linearGradient><linearGradient id="linear-gradient-2" x1="8.14" y1="4.78" x2="12" y2="4.78" gradientUnits="userSpaceOnUse"><stop offset="0" stop-color="#7ac943"/><stop offset="0.4" stop-color="#006837"/></linearGradient><linearGradient id="linear-gradient-3" x1="10.57" y1="4.92" x2="13.86" y2="4.92" gradientUnits="userSpaceOnUse"><stop offset="0.06" stop-color="#7ac943"/><stop offset="0.41" stop-color="#7ac943"/><stop offset="0.89" stop-color="#48ec94"/></linearGradient></defs><title>carrinho com plantas</title><path class="cls-1" d="M.37,10H2.48c.22,0,.36-.12.36-.29s-.14-.31-.37-.32H.36a.34.34,0,0,0-.36.3C0,9.84.14,10,.37,10Z" transform="translate(0 0)"/><path class="cls-1" d="M.39,13h3c.26,0,.39-.11.39-.31s-.13-.3-.39-.3h-3c-.21,0-.33.09-.36.24S.12,13,.39,13Z" transform="translate(0 0)"/><path class="cls-1" d="M1.91,10.88H.69c-.24,0-.37.12-.37.31s.14.29.36.29H3.1c.23,0,.38-.12.37-.31s-.14-.29-.36-.29Z" transform="translate(0 0)"/><path class="cls-1" d="M3.4,15.44H1c-.24,0-.38.11-.39.29s.15.32.39.32H3.4c.25,0,.39-.12.38-.32S3.64,15.44,3.4,15.44Z" transform="translate(0 0)"/><path class="cls-1" d="M1.25,14.52h.93c.21,0,.34-.11.34-.29a.3.3,0,0,0-.34-.31H.35a.32.32,0,0,0-.35.31.31.31,0,0,0,.35.29Z" transform="translate(0 0)"/><path class="cls-1" d="M4.17,13.93a3.3,3.3,0,0,0-.77,0,.3.3,0,0,0,.05.59h.66a.29.29,0,0,0,.3-.26A.28.28,0,0,0,4.17,13.93Z" transform="translate(0 0)"/><path class="cls-2" d="M12.35.19A.09.09,0,0,0,12.2.13a5.7,5.7,0,0,0-1,.92A4.69,4.69,0,0,0,10.13,4a9.61,9.61,0,0,0,.06,2.34,1.22,1.22,0,0,0,1,.92A.34.34,0,0,0,11.52,7a4.66,4.66,0,0,0,.34-1.56c0-.89,0-1.48,0-1.85h0a.09.09,0,0,1,.18,0v.05a7.34,7.34,0,0,1,.29,1.87,3.13,3.13,0,0,1-.4,1.59c-.06.12,0,.22.12.22,1.29,0,2.85-.66,2-3a11.5,11.5,0,0,0-.8-1.76c-.26-.52-.48-1-.62-1.33A5.85,5.85,0,0,1,12.35.19Z" transform="translate(0 0)"/><path class="cls-3" d="M8.86,2.07a.08.08,0,0,0-.13,0A4,4,0,0,0,8.31,3a3.68,3.68,0,0,0,.07,2.42,7.55,7.55,0,0,0,.76,1.69,1,1,0,0,0,1,.39.24.24,0,0,0,.2-.23A3.44,3.44,0,0,0,10.1,6C9.85,5.39,9.64,5,9.53,4.7h0a.07.07,0,0,1,.12-.07l0,0a5.52,5.52,0,0,1,.78,1.28,2.49,2.49,0,0,1,.2,1.27c0,.1,0,.17.15.13.94-.37,1.87-1.29.53-2.79a10.85,10.85,0,0,0-1.12-1.06c-.35-.31-.64-.57-.86-.8A4.31,4.31,0,0,1,8.86,2.07Z" transform="translate(0 0)"/><path class="cls-4" d="M16.28,3a.07.07,0,0,0-.05-.11A4.55,4.55,0,0,0,15.16,3,4,4,0,0,0,13,4.17,7.82,7.82,0,0,0,11.76,5.6a.89.89,0,0,0,.1,1,.27.27,0,0,0,.31.07,4.27,4.27,0,0,0,1-.77c.48-.52.77-.9,1-1.12h0c.06-.06.16,0,.12.07v0a6,6,0,0,1-.82,1.26,2.74,2.74,0,0,1-1.08.75c-.11,0-.13.12-.05.19.77.63,2.05,1,2.81-.84a9.52,9.52,0,0,0,.46-1.44c.12-.44.23-.81.34-1.1A4.34,4.34,0,0,1,16.28,3Z" transform="translate(0 0)"/><path class="cls-5" d="M12.07.08A.09.09,0,0,0,11.92,0a5.92,5.92,0,0,0-1,.89A4.74,4.74,0,0,0,9.76,3.78a9.18,9.18,0,0,0,0,2.35,1.2,1.2,0,0,0,1,.94.37.37,0,0,0,.36-.18,4.72,4.72,0,0,0,.37-1.56c0-.89,0-1.48,0-1.85h0a.09.09,0,0,1,.18,0v0a7,7,0,0,1,.25,1.88A3.11,3.11,0,0,1,11.49,7c-.07.12,0,.23.11.23,1.29,0,2.86-.6,2.06-3a12.21,12.21,0,0,0-.75-1.78,12.1,12.1,0,0,1-.59-1.34A4.48,4.48,0,0,1,12.07.08Z" transform="translate(0 0)"/><path class="cls-6" d="M12.73,2.17a.07.07,0,0,0-.11,0,4.26,4.26,0,0,0-.82.65A3.79,3.79,0,0,0,10.71,5a7.8,7.8,0,0,0-.12,1.84.93.93,0,0,0,.7.78.25.25,0,0,0,.29-.12A3.58,3.58,0,0,0,12,6.26c.08-.69.09-1.16.12-1.45h0a.07.07,0,0,1,.14,0v0a5.7,5.7,0,0,1,.09,1.48,2.48,2.48,0,0,1-.43,1.22.1.1,0,0,0,.08.18c1,.08,2.27-.32,1.78-2.25A9,9,0,0,0,13.26,4,10.37,10.37,0,0,1,12.88,3,3.76,3.76,0,0,1,12.73,2.17Z" transform="translate(0 0)"/><path class="cls-4" d="M9.33,2.47s-.1,0-.12,0a3.8,3.8,0,0,0-.32,1,3.7,3.7,0,0,0,.35,2.4,7.27,7.27,0,0,0,.95,1.6,1,1,0,0,0,1,.29.25.25,0,0,0,.17-.26A3.61,3.61,0,0,0,11,6.29c-.33-.62-.59-1-.73-1.28h0a.07.07,0,0,1,.11-.08l0,0a5.38,5.38,0,0,1,.92,1.19,2.34,2.34,0,0,1,.34,1.24c0,.1.08.16.17.11.89-.47,1.72-1.48.2-2.83a9.64,9.64,0,0,0-1.22-.93c-.39-.27-.71-.5-.95-.7A4.5,4.5,0,0,1,9.33,2.47Z" transform="translate(0 0)"/><path class="cls-1" d="M7.2,7.28h-1a.27.27,0,0,1-.27-.18l-.3-.78a2.26,2.26,0,0,0-.28-.56,1.45,1.45,0,0,0-1.18-.61c-.7,0-1.4,0-2.1,0a.93.93,0,0,0-.64.25.79.79,0,0,0-.22.91A.88.88,0,0,0,2,6.86H3.64c.24,0,.28,0,.37.25C4.89,9.4,5.78,11.69,6.66,14l1.09,2.83a1.06,1.06,0,0,0,.29.46c.13.1.12.19,0,.31a1.39,1.39,0,0,0-.28,1.21,1.54,1.54,0,0,0,3,.07,1.37,1.37,0,0,0-.09-1c0-.06-.07-.12-.1-.19a.12.12,0,0,1,0-.1h0a.13.13,0,0,1,.1,0h3.79c.23,0,.25,0,.15.23a1.35,1.35,0,0,0,.12,1.62,1.45,1.45,0,0,0,1.58.52,1.43,1.43,0,0,0,1.12-1.18,1.35,1.35,0,0,0-.28-1.11c-.13-.18-.13-.19,0-.34a.81.81,0,0,0,.21-.93.84.84,0,0,0-.84-.53H9.64c-.13,0-.28,0-.37-.07a1.16,1.16,0,0,1-.21-.53c0-.08,0-.12.12-.13a1.11,1.11,0,0,1,.26,0h7.34a.86.86,0,0,0,.92-.6c.23-.57.42-1.15.63-1.73.52-1.43,1-2.87,1.57-4.3,0,0,0-.13.1-.13V8a1,1,0,0,0-.7-.73,1.75,1.75,0,0,0-.4,0M7.2,7.28,7.44,7,17.51,3.38m-8.25,16a.91.91,0,1,1,1-.91A.93.93,0,0,1,9.26,19.38Zm6.64,0a.91.91,0,1,1,0-1.82.91.91,0,1,1,0,1.82Zm.39-11.55H19c.35,0,.48.17.36.49-.71,2-1.43,3.93-2.14,5.9-.09.25-.16.29-.45.29H9.17c-.41,0-.66.17-.73.49a2,2,0,0,0,.5,1.22.86.86,0,0,0,.5.12h7c.24,0,.38.12.38.3s-.15.31-.39.31-.7,0-1,0H8.78c-.31,0-.37,0-.48-.31Q6.41,11.72,4.51,6.82a.65.65,0,0,0-.75-.51H2.09c-.24,0-.39-.13-.39-.31s.16-.3.4-.3h2A.93.93,0,0,1,5,6.33c.13.32.25.64.37,1a.7.7,0,0,0,.8.54Z" transform="translate(0 0)"/><path class="cls-1" d="M7.39,7.05" transform="translate(0 0)"/><path class="cls-1" d="M6.24,7.28A.35.35,0,0,1,6,7.08c-.12-.34-.25-.67-.38-1a1.58,1.58,0,0,0-1.48-1h-2a.94.94,0,0,0-1,.91.93.93,0,0,0,1,.91H3.67A.23.23,0,0,1,4,7.1Q5.84,12,7.72,16.89a.9.9,0,0,0,.33.46c.09.06.06.1,0,.16a1.4,1.4,0,0,0-.21,1.63A1.53,1.53,0,0,0,9.29,20a1.55,1.55,0,0,0,1.55-1.64,1.57,1.57,0,0,0-.3-.79.12.12,0,0,0,0,.1c0,.07.07.13.1.19a1.37,1.37,0,0,1,.09,1,1.54,1.54,0,0,1-3-.07,1.39,1.39,0,0,1,.28-1.21c.1-.12.11-.21,0-.31a1.06,1.06,0,0,1-.29-.46L6.66,14C5.78,11.69,4.89,9.4,4,7.11c-.09-.22-.13-.25-.37-.25H2a.88.88,0,0,1-.82-.56.79.79,0,0,1,.22-.91.93.93,0,0,1,.64-.25c.7,0,1.4,0,2.1,0a1.45,1.45,0,0,1,1.18.61,2.26,2.26,0,0,1,.28.56l.3.78a.27.27,0,0,0,.27.18h1c.18,0,.32.18.33,0" transform="translate(0 0)"/><path class="cls-1" d="M7.22,7.22" transform="translate(0 0)"/><path class="cls-1" d="M7.43,7.28" transform="translate(0 0)"/><path class="cls-1" d="M19.9,8.43c-.53,1.43-1,2.87-1.57,4.3-.21.58-.4,1.16-.63,1.73a.86.86,0,0,1-.92.6H9.44a1.11,1.11,0,0,0-.26,0c-.08,0-.13,0-.12.13a1.16,1.16,0,0,0,.21.53c.09.11.24.07.37.07h6.87a.84.84,0,0,1,.84.53.81.81,0,0,1-.21.93c-.15.15-.15.16,0,.34a1.35,1.35,0,0,1,.28,1.11,1.43,1.43,0,0,1-1.12,1.18,1.45,1.45,0,0,1-1.58-.52,1.35,1.35,0,0,1-.12-1.62c.1-.19.08-.22-.15-.23H10.64a.13.13,0,0,0-.1,0h4.07A1.51,1.51,0,0,0,15,19.72a1.61,1.61,0,0,0,2-.17,1.51,1.51,0,0,0,0-2.14.89.89,0,0,0,.38-1.06,1,1,0,0,0-1-.61H9.75c-.45,0-.45,0-.61-.41-.08-.21-.08-.21.15-.21,2.49,0,5,0,7.47,0a1,1,0,0,0,1-.69c.33-.89.65-1.79,1-2.68L20,8.3C19.91,8.3,19.91,8.38,19.9,8.43Z" transform="translate(0 0)"/><path class="cls-1" d="M15,10.87h2a.62.62,0,0,0,.65-.44c.15-.38.3-.76.44-1.13a.61.61,0,0,0-.62-.86H15a.61.61,0,0,0-.67.63q0,.59,0,1.17A.61.61,0,0,0,15,10.87ZM15.09,9h2.27c.1,0,.15,0,.1.13-.13.33-.26.66-.38,1a.14.14,0,0,1-.15.1H15.07c-.1,0-.12,0-.12-.12,0-.32,0-.64,0-1C14.94,9.07,15,9,15.09,9Z" transform="translate(0 0)"/><path class="cls-1" d="M6.14,9.29c.14.39.29.77.44,1.15a.65.65,0,0,0,.66.43h2a.62.62,0,0,0,.67-.65c0-.37,0-.75,0-1.12a.61.61,0,0,0-.69-.66H6.75A.6.6,0,0,0,6.14,9.29Zm3-.25c.06,0,.1,0,.1.09,0,.35,0,.69,0,1,0,.08,0,.09-.11.09H7.28c-.06,0-.1,0-.12-.07-.14-.38-.29-.75-.44-1.14Z" transform="translate(0 0)"/><path class="cls-1" d="M13.05,11.48H11.18a.62.62,0,0,0-.65.63v1.16a.63.63,0,0,0,.66.64H13a.6.6,0,0,0,.64-.62c0-.4,0-.8,0-1.21A.59.59,0,0,0,13.05,11.48Zm-.14,1.82c-.27,0-.54,0-.81,0s-.54,0-.81,0c-.1,0-.13,0-.13-.12,0-.32,0-.65,0-1,0-.1,0-.12.14-.12h1.62c.11,0,.14,0,.14.13q0,.48,0,1C13.06,13.29,13,13.3,12.91,13.3Z" transform="translate(0 0)"/><path class="cls-1" d="M11.16,10.87h1.89a.6.6,0,0,0,.63-.61c0-.4,0-.81,0-1.21A.59.59,0,0,0,13,8.44H11.15a.6.6,0,0,0-.61.6c0,.4,0,.81,0,1.21A.61.61,0,0,0,11.16,10.87ZM11.31,9h1.62c.1,0,.13,0,.13.12,0,.33,0,.65,0,1,0,.11,0,.12-.14.12H11.3c-.11,0-.14,0-.14-.12q0-.48,0-1C11.16,9.06,11.2,9,11.31,9Z" transform="translate(0 0)"/><path class="cls-1" d="M15,13.91h1.18a.63.63,0,0,0,.63-.44q.22-.59.42-1.17a.6.6,0,0,0-.6-.82H15a.61.61,0,0,0-.65.59c0,.41,0,.83,0,1.24A.61.61,0,0,0,15,13.91Zm0-1.73c0-.07,0-.1.09-.1h1.58c-.15.4-.29.78-.42,1.16,0,.07-.08.06-.13.06h-1c-.08,0-.12,0-.12-.11Z" transform="translate(0 0)"/><path class="cls-1" d="M9.26,11.48H7.91a.61.61,0,0,0-.61.83c.15.4.31.8.47,1.19a.61.61,0,0,0,.61.41h.88a.6.6,0,0,0,.64-.61c0-.4,0-.8,0-1.19A.61.61,0,0,0,9.26,11.48Zm0,1.71c0,.08,0,.11-.11.11-.24,0-.49,0-.73,0,0,0-.09,0-.1-.06-.15-.38-.3-.76-.45-1.16H9.17c.08,0,.11,0,.11.1C9.27,12.52,9.27,12.86,9.28,13.19Z" transform="translate(0 0)"/></svg>