<svg id="Layer_1" data-name="Layer 1" xmlns="http://www.w3.org/2000/svg" xmlns:xlink="http://www.w3.org/1999/xlink" viewBox="0 0 18.79 19.61"><defs><style>.cls-1{fill:#ff6e77;}.cls-2{fill:#dab4a5;}.cls-3{fill:#575757;}.cls-4{fill:#fff;}.cls-5{fill:url(#linear-gradient);}.cls-6{fill:url(#linear-gradient-2);}.cls-7{fill:lime;}.cls-8{fill:#9dff5e;}.cls-9{fill:#6aff8f;}</style><linearGradient id="linear-gradient" x1="11253.5" y1="-2202.59" x2="11274.07" y2="-2202.59" gradientTransform="translate(-3552.69 10914.72) rotate(-60.73)" gradientUnits="userSpaceOnUse"><stop offset="0" stop-color="#006837"/><stop offset="0.44" stop-color="#7ac943"/></linearGradient><linearGradient id="linear-gradient-2" x1="6610.25" y1="-2533.37" x2="6630.82" y2="-2533.37" gradientTransform="translate(-3665 6057.38) rotate(-37.53)" xlink:href="#linear-gradient"/><symbol id="Shopping_Cart_2" data-name="Shopping Cart 2" viewBox="0 0 66.23 73.06"><path class="cls-1" d="M41.13,14.33s-1.35,3-2.89,3.8l-.07,0s-.29.08-.22-.56-.18-.52-.32-.47,0-.51-.05-.71-.47.12-.61.08-1.12-1.27-1.71-1.42-3-.42-3-.83.21-.52.21-.52Z"/><path class="cls-2" d="M27.71,15.44c-.19.63-1.81,4.63-1.46,4.53S29,16.4,30.6,14.83L31,14.5h0a1.94,1.94,0,0,1,.62-.39c1.41-.49,4.49.45,6.09.66A15.31,15.31,0,0,0,48,11.58s2.63-2,3.26-3.69c0,0,1.82-2,1.84-2.89s-.95.57-1.16.51.65-.77.38-.85l-.14,0a8.71,8.71,0,0,0-2.34-.43c-.78.06-1.42-.57-3.57-.33-4.34.5-6.8,1.3-11.09,5.19-4.13,3.73-5.92,3.59-5.92,3.59s-6.74-.06-6.73.3,4.73,1.28,4.84,1.56S27.91,14.81,27.71,15.44Z"/><path class="cls-1" d="M27.71,15.44c-.19.63-1.81,4.63-1.46,4.53S29,16.4,30.6,14.83a.94.94,0,0,1-1.17,0c-.82-.64-.41-1.63.93-1.94s6-3.51,9.08-5.49S47.27,5,47.33,5.31s.46,2.41,2.44,1.63,1.68-1.78,1.89-2a1.2,1.2,0,0,1,.54-.28,8.71,8.71,0,0,0-2.34-.43c-.78.06-1.42-.57-3.57-.33-4.34.5-6.8,1.3-11.09,5.19-4.13,3.73-5.92,3.59-5.92,3.59s-6.74-.06-6.73.3,4.73,1.28,4.84,1.56S27.91,14.81,27.71,15.44Z"/><path class="cls-1" d="M42,5s-7,.17-7.94.54.87,1.65.87,1.65,2.05-.21,1.6,0a7.78,7.78,0,0,1-1.7.48l-.94,2.8S41.78,5.32,42,5Z"/><path class="cls-1" d="M45.54,12.5a3.55,3.55,0,0,1-1.69,1.93c-1.36.76-2.9,1.36-2.73.45s1.41-1.66,1.41-1.66S45.2,12.88,45.54,12.5Z"/><path class="cls-1" d="M45.73,9.26c-.27.11-1.16.33-1.06.8s.28.56,0,.58a14.21,14.21,0,0,1-3.89-1.56c-.32-.43-1.21-1.34-.87-1.44s5.84,1.58,5.84,1.58"/><path class="cls-1" d="M51.21,8.08a2.36,2.36,0,0,1-1.52.55,2.56,2.56,0,0,1-1.43-1s.52,1.86,2.69.91Z"/><path class="cls-2" d="M48,6.2a1.43,1.43,0,0,0,1.91.52A1.44,1.44,0,0,0,51,5a1.44,1.44,0,0,0-1.92-.53C48.25,4.83,47.78,5.58,48,6.2Z"/><path class="cls-3" d="M48.66,5.7A.87.87,0,0,0,49.82,6a.85.85,0,0,0,.62-1,.85.85,0,0,0-1.15-.31A.87.87,0,0,0,48.66,5.7Z"/><path class="cls-4" d="M48.89,5.41a.16.16,0,0,0,.21,0c.09,0,.14-.11.11-.18s-.12-.09-.2-.06S48.86,5.34,48.89,5.41Z"/><path class="cls-5" d="M34.56,1.18a.26.26,0,0,0-.4-.2A17.07,17.07,0,0,0,31.1,3.41,14.38,14.38,0,0,0,27,11.57c-.46,3.16-.81,5.33-.58,6.85a3.38,3.38,0,0,0,2.48,2.94A1,1,0,0,0,30,20.91a14.18,14.18,0,0,0,1.48-4.48c.36-2.58.42-4.33.55-5.4v0a.26.26,0,0,1,.52,0l0,.15a21.72,21.72,0,0,1,.21,5.54,9.52,9.52,0,0,1-1.66,4.53c-.23.32-.12.65.27.68,3.69.32,8.35-1.18,6.7-8.39a37.89,37.89,0,0,0-1.68-5.35,40.88,40.88,0,0,1-1.34-4A15.88,15.88,0,0,1,34.56,1.18Z"/><path class="cls-6" d="M47.5,5.55a.26.26,0,0,0-.28-.34,16.72,16.72,0,0,0-3.77,1,14.46,14.46,0,0,0-7,5.88c-1.66,2.72-2.84,4.58-3.23,6.08a3.36,3.36,0,0,0,1.13,3.67,1,1,0,0,0,1.16,0,14.22,14.22,0,0,0,3.12-3.53c1.35-2.24,2.09-3.82,2.64-4.76v0a.26.26,0,0,1,.49.18l0,.15a21.23,21.23,0,0,1-2,5.17,9.55,9.55,0,0,1-3.3,3.51c-.34.21-.37.55,0,.74,3.27,1.74,8.14,2.2,9.47-5.07a37.11,37.11,0,0,0,.56-5.59,40,40,0,0,1,.36-4.24A17,17,0,0,1,47.5,5.55Z"/><circle class="cls-7" cx="19.82" cy="67.56" r="5.5"/><circle class="cls-7" cx="49.44" cy="67.56" r="5.5"/><path class="cls-1" d="M44.49,21.06s-2.43,2.15-4.19,2.29h-.08s-.29,0,0-.6,0-.56-.11-.56.18-.49.25-.68-.48-.07-.58-.17-.5-1.62-1-2-2.62-1.64-2.44-2,.4-.39.4-.39Z"/><path class="cls-2" d="M31.79,16.59c-.43.5-3.55,3.49-3.18,3.54s3.92-2.16,6.07-2.92l.47-.15h0a2.11,2.11,0,0,1,.73-.1c1.48.13,3.91,2.24,5.28,3.09a15.26,15.26,0,0,0,10.75,1.31s3.2-.72,4.48-2c0,0,2.49-1.12,2.86-1.9s-1.11.14-1.27,0,.91-.44.7-.62l-.11-.1a9,9,0,0,0-2-1.34c-.74-.26-1.06-1.11-3.12-1.76-4.17-1.32-6.74-1.59-12.25.2-5.29,1.72-6.87.86-6.87.86s-6.12-2.8-6.26-2.47,3.79,3.11,3.78,3.4S32.23,16.1,31.79,16.59Z"/><path class="cls-1" d="M31.79,16.59c-.43.5-3.55,3.49-3.18,3.54s3.92-2.16,6.07-2.92a1,1,0,0,1-1.06-.5c-.49-.92.29-1.66,1.65-1.39s6.89-.76,10.52-1.3,8.1,1.06,8,1.33-.56,2.39,1.57,2.49,2.26-.93,2.55-1.09a1.35,1.35,0,0,1,.62,0,9,9,0,0,0-2-1.34c-.74-.26-1.06-1.11-3.12-1.76-4.17-1.32-6.74-1.59-12.25.2-5.29,1.72-6.87.86-6.87.86s-6.12-2.8-6.26-2.47,3.79,3.11,3.78,3.4S32.23,16.1,31.79,16.59Z"/><path class="cls-1" d="M49.12,12.87s-6.46-2.7-7.47-2.75.12,1.86.12,1.86,2,.65,1.44.7a7.36,7.36,0,0,1-1.75-.26l-2,2.18S48.76,13.1,49.12,12.87Z"/><path class="cls-1" d="M49.27,21.19a3.55,3.55,0,0,1-2.33,1.07c-1.56.14-3.21,0-2.68-.71a3.27,3.27,0,0,1,2-.93S48.8,21.4,49.27,21.19Z"/><path class="cls-1" d="M50.76,18.31c-.29,0-1.19-.17-1.3.29s0,.63-.27.52a13.9,13.9,0,0,1-2.9-3c-.13-.53-.57-1.72-.22-1.67s4.69,3.83,4.69,3.83"/><path class="cls-1" d="M56.24,19.47a2.34,2.34,0,0,1-1.6-.12,2.5,2.5,0,0,1-.91-1.48s-.29,1.91,2.08,1.93Z"/><path class="cls-2" d="M54.11,16.45c0,.66.66,1.22,1.54,1.26a1.44,1.44,0,0,0,1.64-1.12c0-.65-.66-1.22-1.54-1.26A1.43,1.43,0,0,0,54.11,16.45Z"/><path class="cls-3" d="M54.89,16.26c0,.4.4.74.92.76s1-.28,1-.67-.39-.74-.92-.76A.86.86,0,0,0,54.89,16.26Z"/><path class="cls-4" d="M55.22,16.08c0,.07.07.13.17.14a.17.17,0,0,0,.18-.12c0-.07-.07-.13-.17-.14S55.22,16,55.22,16.08Z"/><path class="cls-8" d="M32.45.24a.26.26,0,0,0-.4-.2,15.93,15.93,0,0,0-3,2.4,14.08,14.08,0,0,0-4,8.12c-.41,3.15-.73,5.31-.47,6.83a3.46,3.46,0,0,0,2.53,2.94,1,1,0,0,0,1.07-.45,14,14,0,0,0,1.42-4.46c.32-2.57.35-4.31.47-5.38v0a.26.26,0,0,1,.52,0l0,.15a21.12,21.12,0,0,1,.29,5.52,9.28,9.28,0,0,1-1.59,4.51c-.23.32-.11.65.28.68,3.7.33,8.36-1.15,6.6-8.34a37.4,37.4,0,0,0-1.77-5.33,38.31,38.31,0,0,1-1.4-4A15.35,15.35,0,0,1,32.45.24Z"/><path class="cls-9" d="M45,10.23a.27.27,0,0,0-.2-.38,14.25,14.25,0,0,0-3.39-.39,10,10,0,0,0-6.92,2.59c-1.84,1.73-3.13,2.9-3.69,4a3.2,3.2,0,0,0,.42,3.46,1,1,0,0,0,1,.39A9.46,9.46,0,0,0,35.42,18c1.49-1.43,2.37-2.51,3-3.11v0c.17-.17.5.09.4.31l-.06.12A14.07,14.07,0,0,1,36.27,19a6.36,6.36,0,0,1-3.37,1.85c-.33.05-.4.33-.14.6,2.56,2.55,6.69,4.55,8.92-1.1A27.18,27.18,0,0,0,43,15.82a33,33,0,0,1,.95-3.43A11.41,11.41,0,0,1,45,10.23Z"/><path class="cls-9" d="M18.73,7.72a.22.22,0,0,0-.35.08,12.51,12.51,0,0,0-.51,3,10.86,10.86,0,0,0,1.95,6.83,22,22,0,0,0,3.35,4.27,2.79,2.79,0,0,0,3,.45.76.76,0,0,0,.4-.81,11.49,11.49,0,0,0-1.54-3.35C23.9,16.47,23,15.43,22.5,14.74l0,0a.2.2,0,0,1,.29-.28l.1.07A17.28,17.28,0,0,1,26,17.62a7.44,7.44,0,0,1,1.46,3.47c0,.31.27.44.52.26,2.37-1.68,4.32-4.92-.53-8.27a31.91,31.91,0,0,0-3.89-2.25,31.72,31.72,0,0,1-3-1.67A12.66,12.66,0,0,1,18.73,7.72Z"/><path class="cls-7" d="M58.94,56.06c-7.93,0-33.76.19-42.56.19a2,2,0,0,1-2-2v-1h0a2.77,2.77,0,0,1,2.33-2.66l45.4-6a4.81,4.81,0,0,0,4.15-4.74V24.92a4.5,4.5,0,0,0-4.5-4.5H17a2.64,2.64,0,0,1-2.63-2.64v-.53c0-3.05.05-4-3-4H2.65c-3.19,0-3.67,4.8-.51,5.22a3.44,3.44,0,0,0,.46,0l2.93-1a2.46,2.46,0,0,1,1.65,0c1,.39,2.67,1,2.67,1.08V54.5a5.5,5.5,0,0,0,5.5,5.5l43.59.06c2.14,0,3,.24,3-2C61.94,56.06,60.67,56.06,58.94,56.06ZM35.7,46,31,46.78a2.55,2.55,0,0,1-3-2.35V25.64a2.52,2.52,0,0,1,2.62-2.39H34.5a2.74,2.74,0,0,1,2.85,2.61v18.4A1.87,1.87,0,0,1,35.7,46Zm7.41-22.79h5a2.28,2.28,0,0,1,2.28,2.28V41.66a2.46,2.46,0,0,1-2.1,2.43l-4.86.73a2.47,2.47,0,0,1-2.85-2.45V25.82A2.57,2.57,0,0,1,43.11,23.25ZM61.72,42.07,55.27,43a1.88,1.88,0,0,1-2.13-1.87v-16A1.88,1.88,0,0,1,55,23.25h6.45a1.88,1.88,0,0,1,1.88,1.88V40.21A1.88,1.88,0,0,1,61.72,42.07Zm-36.37-16V44.55a2.92,2.92,0,0,1-2.75,2.8L16.1,48a2.41,2.41,0,0,1-2.75-2.27V27.1a4,4,0,0,1,4.2-3.85h4.68A3,3,0,0,1,25.35,26.11Z"/></symbol></defs><title>carrinho_com_plantas_e_peixes</title><use width="66.23" height="73.06" transform="translate(0) scale(0.28 0.27)" xlink:href="#Shopping_Cart_2"/></svg>