<svg id="Layer_1" data-name="Layer 1" xmlns="http://www.w3.org/2000/svg" xmlns:xlink="http://www.w3.org/1999/xlink" viewBox="0 0 20 19.83"><defs><style>.cls-1{fill:lime;}.cls-2{fill:#fff;}.cls-3{fill:url(#Gradiente_sem_nome_26);}.cls-4{fill:url(#Gradiente_sem_nome_26-2);}.cls-5{fill:url(#Gradiente_sem_nome_26-3);}.cls-6{fill:none;}.cls-7{fill:#eff2f9;}.cls-8{fill:url(#Gradiente_sem_nome_44);}.cls-9{fill:#6bb7dd;}.cls-10{fill:url(#Gradiente_sem_nome_26-24);}</style><linearGradient id="Gradiente_sem_nome_26" x1="-286.71" y1="-1212.09" x2="-286.48" y2="-1212.09" gradientTransform="translate(205.6 1235.84) rotate(4.56)" gradientUnits="userSpaceOnUse"><stop offset="0" stop-color="#cce0f4"/><stop offset="0" stop-color="#cee1eb"/><stop offset="0" stop-color="#d3e5d1"/><stop offset="0" stop-color="#dceaa8"/><stop offset="0" stop-color="#e8f16f"/><stop offset="0" stop-color="#f1f742"/><stop offset="0.04" stop-color="#f4f935"/><stop offset="0.12" stop-color="#fbfd12"/><stop offset="0.16" stop-color="#ff0"/><stop offset="0.99" stop-color="#2da2da"/><stop offset="1" stop-color="#167eb8"/><stop offset="1" stop-color="#005b97"/></linearGradient><linearGradient id="Gradiente_sem_nome_26-2" x1="-168.02" y1="716.53" x2="-168.01" y2="716.53" gradientTransform="matrix(0.92, -0.38, 0.38, 0.92, -103.89, -721.68)" xlink:href="#Gradiente_sem_nome_26"/><linearGradient id="Gradiente_sem_nome_26-3" x1="-167.65" y1="716.91" x2="-167.65" y2="716.91" gradientTransform="matrix(0.92, -0.38, 0.38, 0.92, -103.89, -721.68)" xlink:href="#Gradiente_sem_nome_26"/><linearGradient id="Gradiente_sem_nome_44" x1="-172.02" y1="715.2" x2="-170.3" y2="715.2" gradientTransform="matrix(0.92, -0.38, 0.38, 0.92, -103.89, -721.68)" gradientUnits="userSpaceOnUse"><stop offset="0" stop-color="#cce0f4"/><stop offset="0" stop-color="#cee1eb"/><stop offset="0" stop-color="#d3e4d1"/><stop offset="0" stop-color="#dceaa7"/><stop offset="0" stop-color="#e8f16e"/><stop offset="0" stop-color="#f7fa25"/><stop offset="0" stop-color="#ff0"/><stop offset="0.43" stop-color="#ff0"/><stop offset="0.99" stop-color="#2da2da"/><stop offset="1" stop-color="#097ec4"/><stop offset="1" stop-color="#0075be"/><stop offset="1" stop-color="#005b97"/></linearGradient><linearGradient id="Gradiente_sem_nome_26-24" x1="-174.8" y1="714.35" x2="-166.07" y2="714.35" gradientTransform="matrix(0.92, -0.38, 0.38, 0.92, -103.89, -721.68)" xlink:href="#Gradiente_sem_nome_26"/></defs><title>carrinho com peixes</title><path class="cls-1" d="M.37,9.78H2.48c.22,0,.36-.12.36-.3s-.14-.31-.37-.31H.36a.32.32,0,0,0-.36.3C0,9.66.14,9.78.37,9.78Z" transform="translate(0 0)"/><path class="cls-1" d="M.39,12.83h3c.26,0,.39-.11.39-.31s-.13-.3-.39-.3h-3c-.21,0-.33.09-.36.24S.12,12.83.39,12.83Z" transform="translate(0 0)"/><path class="cls-1" d="M1.91,10.7H.69c-.24,0-.37.12-.37.31s.14.29.36.29H3.1c.23,0,.38-.13.37-.31s-.14-.29-.36-.29Z" transform="translate(0 0)"/><path class="cls-1" d="M3.4,15.27H1c-.24,0-.38.11-.39.29s.15.31.39.31H3.4c.25,0,.39-.11.38-.31S3.64,15.27,3.4,15.27Z" transform="translate(0 0)"/><path class="cls-1" d="M1.25,14.35h.93c.21,0,.34-.12.34-.3a.3.3,0,0,0-.34-.31H.35a.31.31,0,1,0,0,.61Z" transform="translate(0 0)"/><path class="cls-1" d="M4.17,13.75a2.84,2.84,0,0,0-.77,0,.27.27,0,0,0-.24.31.28.28,0,0,0,.29.27h.66a.27.27,0,0,0,.3-.26A.28.28,0,0,0,4.17,13.75Z" transform="translate(0 0)"/><ellipse class="cls-2" cx="8.72" cy="4.41" rx="0.57" ry="0.55"/><ellipse class="cls-2" cx="14.65" cy="3.16" rx="0.86" ry="0.76" transform="translate(-0.28 4.44) rotate(-17.07)"/><ellipse class="cls-3" cx="16.26" cy="4.81" rx="0.11" ry="0.14" transform="translate(6.07 18.35) rotate(-69.5)"/><path class="cls-4" d="M14.47,4.72Z" transform="translate(0 0)"/><polygon class="cls-5" points="14.95 4.92 14.94 4.92 14.95 4.92 14.95 4.92"/><path class="cls-6" d="M13.86,3.42h0v0Z" transform="translate(0 0)"/><path class="cls-6" d="M15,3.13a.41.41,0,0,1,0,.08Z" transform="translate(0 0)"/><path class="cls-6" d="M13.86,3.42h0v0Z" transform="translate(0 0)"/><path class="cls-6" d="M15,3.13a.41.41,0,0,1,0,.08Z" transform="translate(0 0)"/><path class="cls-6" d="M14.83,2l0,0Z" transform="translate(0 0)"/><path class="cls-6" d="M15.46,2.67l0,0Z" transform="translate(0 0)"/><polygon class="cls-6" points="15.91 3.94 15.91 3.95 15.91 3.95 15.91 3.94"/><path class="cls-6" d="M13.86,3.42h0v0Z" transform="translate(0 0)"/><path class="cls-6" d="M15,3.13a.41.41,0,0,1,0,.08Z" transform="translate(0 0)"/><path class="cls-6" d="M14.83,2l0,0Z" transform="translate(0 0)"/><path class="cls-6" d="M15.46,2.67l0,0Z" transform="translate(0 0)"/><polygon class="cls-6" points="15.91 3.94 15.91 3.95 15.91 3.95 15.91 3.94"/><path class="cls-4" d="M14.47,4.72Z" transform="translate(0 0)"/><path class="cls-6" d="M13.86,3.42h0v0Z" transform="translate(0 0)"/><path class="cls-6" d="M15,3.13a.41.41,0,0,1,0,.08Z" transform="translate(0 0)"/><path class="cls-6" d="M7.89,6.56v0Z" transform="translate(0 0)"/><path class="cls-6" d="M9.27,6.23v0Z" transform="translate(0 0)"/><path class="cls-6" d="M11.39,3.05h0Z" transform="translate(0 0)"/><polygon class="cls-5" points="14.95 4.92 14.94 4.92 14.95 4.92 14.95 4.92"/><path class="cls-6" d="M13.86,3.42h0v0Z" transform="translate(0 0)"/><path class="cls-6" d="M15,3.13a.41.41,0,0,1,0,.08Z" transform="translate(0 0)"/><path class="cls-6" d="M8.14,7.11l0,0Z" transform="translate(0 0)"/><path class="cls-6" d="M8.47,7.61l0,0Z" transform="translate(0 0)"/><path class="cls-6" d="M8.83,8l0,0Z" transform="translate(0 0)"/><path class="cls-6" d="M7.68,5.28v0Z" transform="translate(0 0)"/><path class="cls-6" d="M7.68,5.24v0Z" transform="translate(0 0)"/><path class="cls-6" d="M9,8.17l0,0Z" transform="translate(0 0)"/><path class="cls-6" d="M9,8.2l0,0Z" transform="translate(0 0)"/><path class="cls-6" d="M9.13,8.27l0,0Z" transform="translate(0 0)"/><path class="cls-6" d="M12.92,5.44l0,0Z" transform="translate(0 0)"/><path class="cls-6" d="M11.39,3.05h0Z" transform="translate(0 0)"/><path class="cls-4" d="M14.47,4.72Z" transform="translate(0 0)"/><polygon class="cls-5" points="14.95 4.92 14.94 4.92 14.95 4.92 14.95 4.92"/><path class="cls-6" d="M13.86,3.42h0v0Z" transform="translate(0 0)"/><path class="cls-6" d="M15,3.13a.41.41,0,0,1,0,.08Z" transform="translate(0 0)"/><path class="cls-6" d="M12.92,5.44l0,0Z" transform="translate(0 0)"/><path class="cls-4" d="M14.47,4.72Z" transform="translate(0 0)"/><polygon class="cls-5" points="14.95 4.92 14.94 4.92 14.95 4.92 14.95 4.92"/><path class="cls-6" d="M13.86,3.42h0v0Z" transform="translate(0 0)"/><path class="cls-6" d="M12.92,5.44l0,0Z" transform="translate(0 0)"/><path class="cls-6" d="M11.39,3.05h0Z" transform="translate(0 0)"/><path class="cls-4" d="M14.47,4.72Z" transform="translate(0 0)"/><path class="cls-6" d="M11.39,3.05h0Z" transform="translate(0 0)"/><path class="cls-6" d="M12.92,5.44l0,0Z" transform="translate(0 0)"/><path class="cls-6" d="M11.39,3.05h0Z" transform="translate(0 0)"/><path class="cls-6" d="M13.86,3.42h0v0Z" transform="translate(0 0)"/><polygon class="cls-5" points="14.95 4.92 14.94 4.92 14.95 4.92 14.95 4.92"/><path class="cls-6" d="M13.86,3.42h0v0Z" transform="translate(0 0)"/><path class="cls-6" d="M15,3.13a.41.41,0,0,1,0,.08Z" transform="translate(0 0)"/><polygon class="cls-5" points="14.95 4.92 14.94 4.92 14.95 4.92 14.95 4.92"/><path class="cls-6" d="M13.86,3.42h0v0Z" transform="translate(0 0)"/><path class="cls-6" d="M15,3.13a.41.41,0,0,1,0,.08Z" transform="translate(0 0)"/><path class="cls-6" d="M11.39,3.05h0Z" transform="translate(0 0)"/><path class="cls-6" d="M12.92,5.44l0,0Z" transform="translate(0 0)"/><path class="cls-4" d="M14.47,4.72Z" transform="translate(0 0)"/><polygon class="cls-5" points="14.95 4.92 14.94 4.92 14.95 4.92 14.95 4.92"/><path class="cls-6" d="M12.92,5.44l0,0Z" transform="translate(0 0)"/><polygon class="cls-6" points="12.99 5.4 12.99 5.4 12.98 5.4 12.99 5.4"/><polygon class="cls-5" points="14.95 4.92 14.94 4.92 14.95 4.92 14.95 4.92"/><path class="cls-6" d="M13.86,3.42h0v0Z" transform="translate(0 0)"/><path class="cls-6" d="M15,3.13a.41.41,0,0,1,0,.08Z" transform="translate(0 0)"/><path class="cls-6" d="M14.83,2l0,0Z" transform="translate(0 0)"/><path class="cls-6" d="M15.46,2.67l0,0Z" transform="translate(0 0)"/><path class="cls-6" d="M13.86,3.42h0v0Z" transform="translate(0 0)"/><path class="cls-6" d="M15,3.13a.41.41,0,0,1,0,.08Z" transform="translate(0 0)"/><path class="cls-6" d="M14.83,2l0,0Z" transform="translate(0 0)"/><path class="cls-6" d="M15.46,2.67l0,0Z" transform="translate(0 0)"/><polygon class="cls-5" points="14.95 4.92 14.94 4.92 14.95 4.92 14.95 4.92"/><polygon class="cls-5" points="14.95 4.92 14.94 4.92 14.95 4.92 14.95 4.92"/><path class="cls-6" d="M15,3.13a.41.41,0,0,1,0,.08Z" transform="translate(0 0)"/><polygon class="cls-5" points="14.95 4.92 14.94 4.92 14.95 4.92 14.95 4.92"/><path class="cls-6" d="M13.86,3.42h0v0Z" transform="translate(0 0)"/><path class="cls-6" d="M15,3.13a.41.41,0,0,1,0,.08Z" transform="translate(0 0)"/><path class="cls-6" d="M14.83,2l0,0Z" transform="translate(0 0)"/><path class="cls-6" d="M15.46,2.67l0,0Z" transform="translate(0 0)"/><path class="cls-6" d="M7.89,6.56v0Z" transform="translate(0 0)"/><path class="cls-6" d="M8.14,7.11l0,0Z" transform="translate(0 0)"/><path class="cls-6" d="M8.47,7.61l0,0Z" transform="translate(0 0)"/><path class="cls-6" d="M8.83,8l0,0Z" transform="translate(0 0)"/><path class="cls-6" d="M7.68,5.28v0Z" transform="translate(0 0)"/><path class="cls-6" d="M7.68,5.24v0Z" transform="translate(0 0)"/><path class="cls-6" d="M9,8.17l0,0Z" transform="translate(0 0)"/><path class="cls-6" d="M9,8.2l0,0Z" transform="translate(0 0)"/><path class="cls-6" d="M9.13,8.27l0,0Z" transform="translate(0 0)"/><path class="cls-6" d="M9.27,6.23v0Z" transform="translate(0 0)"/><path class="cls-6" d="M12.92,5.44l0,0Z" transform="translate(0 0)"/><polygon class="cls-6" points="12.99 5.4 12.99 5.4 12.98 5.4 12.99 5.4"/><path class="cls-6" d="M7.89,6.56v0Z" transform="translate(0 0)"/><path class="cls-6" d="M8.14,7.11l0,0Z" transform="translate(0 0)"/><path class="cls-6" d="M7.89,6.56v0Z" transform="translate(0 0)"/><path class="cls-6" d="M7.89,6.56v0Z" transform="translate(0 0)"/><path class="cls-6" d="M8.14,7.11l0,0Z" transform="translate(0 0)"/><path class="cls-6" d="M9.27,6.23v0Z" transform="translate(0 0)"/><path class="cls-4" d="M14.47,4.72Z" transform="translate(0 0)"/><path class="cls-6" d="M15,3.13a.41.41,0,0,1,0,.08Z" transform="translate(0 0)"/><polygon class="cls-6" points="15.91 3.94 15.91 3.95 15.91 3.95 15.91 3.94"/><path class="cls-6" d="M9.27,6.23v0Z" transform="translate(0 0)"/><path class="cls-6" d="M12.92,5.44l0,0Z" transform="translate(0 0)"/><polygon class="cls-6" points="12.99 5.4 12.99 5.4 12.98 5.4 12.99 5.4"/><path class="cls-6" d="M11.39,3.05h0Z" transform="translate(0 0)"/><path class="cls-4" d="M14.47,4.72Z" transform="translate(0 0)"/><polygon class="cls-5" points="14.95 4.92 14.94 4.92 14.95 4.92 14.95 4.92"/><path class="cls-6" d="M13.86,3.42h0v0Z" transform="translate(0 0)"/><path class="cls-6" d="M15,3.13a.41.41,0,0,1,0,.08Z" transform="translate(0 0)"/><path class="cls-6" d="M14.83,2l0,0Z" transform="translate(0 0)"/><path class="cls-6" d="M15.46,2.67l0,0Z" transform="translate(0 0)"/><polygon class="cls-6" points="15.91 3.94 15.91 3.95 15.91 3.95 15.91 3.94"/><path class="cls-7" d="M12.44,3,12.32,3a3.25,3.25,0,0,0-.52.37l-.25.24h0l-.35.12a3.55,3.55,0,0,0-.55.28,4.33,4.33,0,0,0-.41.3A3,3,0,0,0,9.47,5.4l0,.06h0v0h0v0h0v0h0v.09h0v0h0v0l0,0h0v0h0V6h0v.06h0v0h0v0h0v0h0v0h0V6.3h0v.1h0s0,.07,0,.1h0v0h0v0h0v0h0v0h0a.29.29,0,0,0,0,.09h0v0h0V7l0-.08h0a1.24,1.24,0,0,1-.1-.2,2.38,2.38,0,0,1-.18-1,2,2,0,0,1,.05-.42,1.33,1.33,0,0,1,.05-.19,3,3,0,0,1,1.41-1.72,3.59,3.59,0,0,1,.34-.17l.08,0a2.83,2.83,0,0,1,.41-.14h0a3.4,3.4,0,0,1,.94-.11h.11Z" transform="translate(0 0)"/><path class="cls-8" d="M11.55,3.63a2.68,2.68,0,0,0-.72,1.86.66.66,0,0,0,0,.14h-.23a.12.12,0,0,1-.14-.11A2.37,2.37,0,0,1,10.65,4a3.55,3.55,0,0,1,.55-.28Z" transform="translate(0 0)"/><path class="cls-6" d="M12.92,5.44l0,0Z" transform="translate(0 0)"/><polygon class="cls-6" points="12.99 5.4 12.99 5.4 12.98 5.4 12.99 5.4"/><path class="cls-6" d="M11.39,3.05h0Z" transform="translate(0 0)"/><path class="cls-4" d="M14.47,4.72Z" transform="translate(0 0)"/><polygon class="cls-5" points="14.95 4.92 14.94 4.92 14.95 4.92 14.95 4.92"/><path class="cls-6" d="M13.86,3.42h0v0Z" transform="translate(0 0)"/><path class="cls-6" d="M15,2.92v0a.41.41,0,0,1,0,.19A.25.25,0,0,0,15,3L15,2.93h0a.3.3,0,0,0-.29,0L14.57,3h0a.23.23,0,0,0-.05.24.28.28,0,0,0,.35.12A.33.33,0,0,0,15,3.21a.52.52,0,0,1-.24.22.51.51,0,0,1-.42,0,.33.33,0,0,1-.13-.16.27.27,0,0,1,0-.12.37.37,0,0,1,.07-.24h0a.38.38,0,0,1,.09-.09.39.39,0,0,1,.11-.06.43.43,0,0,1,.35,0A.34.34,0,0,1,15,2.92Z" transform="translate(0 0)"/><path class="cls-9" d="M15,3a.25.25,0,0,1,0,.12h0l0,.08a.33.33,0,0,1-.14.12.28.28,0,0,1-.35-.12A.23.23,0,0,1,14.57,3h0l.11-.08a.3.3,0,0,1,.29,0h0Z" transform="translate(0 0)"/><path class="cls-6" d="M15,3.13a.41.41,0,0,1,0,.08Z" transform="translate(0 0)"/><path class="cls-6" d="M14.83,2l0,0Z" transform="translate(0 0)"/><path class="cls-6" d="M15.46,2.67l0,0Z" transform="translate(0 0)"/><polygon class="cls-6" points="15.91 3.94 15.91 3.95 15.91 3.95 15.91 3.94"/><path class="cls-6" d="M16.3,4.7h0Z" transform="translate(0 0)"/><path class="cls-10" d="M16.46,4.46l0,0h0a1,1,0,0,0-.11-.17l0,0h0a.46.46,0,0,0-.07-.07h0l-.05,0,0,0L16,4h-.08v0h0V3.77h0a.09.09,0,0,1,0,0,1,1,0,0,0,0-.3l0-.09h0l0,0h0s0,0,0-.06h0l0-.07a1.21,1.21,0,0,0-.24-.35h0v0l0,0h0l0,0v0l0-.05h0l0,0h0v0h0v0h0v0l-.06-.06h0l0-.05,0,0,0,0,0,0h0l0,0,0,0,0,0h-.12l0,0,0,0,0,0h-.17v0h0l0,0-.08-.05a4.42,4.42,0,0,0-.61-.32l-.19-.07h0l-.26-.09a.23.23,0,0,1-.15-.15l0-.07,0-.08A1,1,0,0,0,13,.71a1.68,1.68,0,0,0-.25-.29,1.65,1.65,0,0,0-.68-.36,1.45,1.45,0,0,0-.3-.06.19.19,0,0,0-.12,0,1.78,1.78,0,0,0-.32.35,1.64,1.64,0,0,0-.16.29,1.34,1.34,0,0,0-.07.18.34.34,0,0,1-.15.18l-.09.05,0,0-.12,0a5.1,5.1,0,0,0-1.12.64l0,0h0l-.08.06h0L9.32,2h0l0,0h0l0,0h0l0,0h0l-.07,0h0v0h0v0l0,0H9v0H9v0H9v0h0v0l0,0h0l-.06.06,0,0,0,0-.06.06,0,0h0l0,0v0h0v0l0,0h0l0,0h0l0,0h0l0,0A4.37,4.37,0,0,0,7.91,4V4h0V4h0v0l0,.05v0h0v.07h0v0h0l0,0v0h0v0h0v.07h0v.1h0v0h0v.06h0v0h0V4.8h0v.08h0V5h0v.13h0v.17h0v0h0v0h0v0h0v0h0v0h0v0h0v.06h0v.19h0V6h0V6h0v.08h0v.13l0,.06v.11h0v0h0v0h0v0h0v0h0v0h0v0h0v0H8v0l0,0v0H8v.06l0,0V7h0V7h0v0l0,0v0h0v0h0v0h0l0,0,0,0h0v0h0l0,0h0l0,0v0l0,0h0l0,0v0h0v0h0a1.6,1.6,0,0,1,.38-.23l.58-.23A.88.88,0,0,0,9.35,7l0-.08h0a1.24,1.24,0,0,1-.1-.2,2.38,2.38,0,0,1-.18-1,2,2,0,0,1,.05-.42,1.33,1.33,0,0,1,.05-.19,3,3,0,0,1,1.41-1.72,3.59,3.59,0,0,1,.34-.17l.08,0a2.83,2.83,0,0,1,.41-.14h0a3.4,3.4,0,0,1,.94-.11h.05s0,0,0,0l-.07,0a3.25,3.25,0,0,0-.52.37l-.25.24v0h0v0h0l0,0h0l0,0h0l0,0v0h0l0,0h0v0l0,0v0h0l0,0V4h0V4h0l0,0v0h0v0l0,0,0,0v0h0l0,0v0h0v0a.16.16,0,0,0,0,.07h0v.06h0v.06h0v0h0v0h0v.11h0V4.8h0v.08h0v0h0V5h0v.07h0v0h0v0h0v0h0v.09h0v0h0v.06h0v.07a.66.66,0,0,0,0,.14s0,.08,0,.13a.21.21,0,0,0,.19.16,3.89,3.89,0,0,0,.75,0h1.09l0,0h.24l0,0h.07l0,0,0,0h0l0,0h0l0,0h0l0,0h0l0,0h0v0h0l0,0,0,0h0l0,0h0l0,0h0l0,0h0l0,0v0h0l0,0h0v0l0,0h0v0h0a.08.08,0,0,1,.12,0,2.48,2.48,0,0,0,.26.19l.06,0h0l0,0h.15l0,0h.09l0,0h.07l0,0h.49a3,3,0,0,0,.9,0h.08a.12.12,0,0,0,.08,0l0,0h0a.06.06,0,0,0,0,0,0,0,0,0,0,0,0h-.24a3.55,3.55,0,0,1-.65-.12l-.13,0-.2-.08h0l-.11-.05-.13-.07h0s0,0,0,0l.18,0,.07,0,.1,0,.23,0,.09,0,.56,0h.2l.05,0,0,0s0,0,0,0v0a0,0,0,0,0,0,0V4.46Zm-1.52.46h0Zm.09-2a.41.41,0,0,1,0,.19h0a.41.41,0,0,1,0,.08.52.52,0,0,1-.24.22.51.51,0,0,1-.42,0,.33.33,0,0,1-.13-.16.27.27,0,0,1,0-.12.37.37,0,0,1,.07-.24h0a.38.38,0,0,1,.09-.09.39.39,0,0,1,.11-.06.43.43,0,0,1,.35,0,.34.34,0,0,1,.2.19Z" transform="translate(0 0)"/><path class="cls-1" d="M7.2,7.09h-1a.27.27,0,0,1-.27-.18l-.3-.78a2.26,2.26,0,0,0-.28-.56A1.45,1.45,0,0,0,4.15,5c-.7,0-1.4,0-2.1,0a.89.89,0,0,0-.64.25.79.79,0,0,0-.22.91A.88.88,0,0,0,2,6.67H3.64c.24,0,.28,0,.37.25.88,2.29,1.77,4.59,2.65,6.89.36.95.73,1.89,1.09,2.84A1,1,0,0,0,8,17.1c.13.11.12.2,0,.32a1.39,1.39,0,0,0-.28,1.21,1.51,1.51,0,0,0,1.36,1.15,1.54,1.54,0,0,0,1.6-1.08,1.37,1.37,0,0,0-.09-1c0-.06-.07-.12-.1-.19a.12.12,0,0,1,0-.1h0s.05,0,.1,0h3.79c.23,0,.25,0,.15.23a1.35,1.35,0,0,0,.12,1.62,1.45,1.45,0,0,0,1.58.52,1.43,1.43,0,0,0,1.12-1.18,1.35,1.35,0,0,0-.28-1.11c-.13-.18-.13-.19,0-.34a.83.83,0,0,0,.21-.94.84.84,0,0,0-.84-.52H9.64c-.13,0-.28,0-.37-.08A1.12,1.12,0,0,1,9.06,15c0-.08,0-.12.12-.14h7.6a.86.86,0,0,0,.92-.6c.23-.57.42-1.15.63-1.73.52-1.43,1-2.87,1.57-4.31,0-.05,0-.12.1-.12V7.79a1,1,0,0,0-.7-.73,1.75,1.75,0,0,0-.4,0M7.2,7.09m.24-.24M17.51,3.19m-8.25,16a.91.91,0,1,1,1-.91A.93.93,0,0,1,9.26,19.21Zm6.64,0a.94.94,0,0,1-1-.92.93.93,0,0,1,.94-.91.92.92,0,1,1,0,1.83Zm.39-11.58H19c.35,0,.48.17.36.49L17.18,14c-.09.26-.16.3-.45.3H9.17c-.41,0-.66.17-.73.5a2.07,2.07,0,0,0,.5,1.22.86.86,0,0,0,.5.11h7c.24,0,.38.12.38.3s-.15.31-.39.31H8.78c-.31,0-.37,0-.48-.32Q6.41,11.56,4.51,6.63a.65.65,0,0,0-.75-.51H2.09c-.24,0-.39-.12-.39-.31s.16-.3.4-.3h2A.93.93,0,0,1,5,6.14c.13.32.25.64.37,1a.7.7,0,0,0,.8.54Z" transform="translate(0 0)"/><path class="cls-1" d="M7.39,6.86" transform="translate(0 0)"/><path class="cls-1" d="M6.24,7.09A.33.33,0,0,1,6,6.89c-.12-.34-.25-.67-.38-1a1.57,1.57,0,0,0-1.48-1h-2a.94.94,0,0,0-1,.91.93.93,0,0,0,1,.91c.53,0,1.07,0,1.61,0,.16,0,.23,0,.28.19q1.89,4.9,3.77,9.8a.92.92,0,0,0,.33.47c.09.06.06.1,0,.16A1.4,1.4,0,0,0,7.85,19a1.58,1.58,0,0,0,3-.78,1.57,1.57,0,0,0-.3-.79.12.12,0,0,0,0,.1c0,.07.07.13.1.19a1.37,1.37,0,0,1,.09,1,1.54,1.54,0,0,1-1.6,1.08,1.51,1.51,0,0,1-1.36-1.15,1.39,1.39,0,0,1,.28-1.21c.1-.12.11-.21,0-.32a1,1,0,0,1-.29-.45c-.36-.95-.73-1.89-1.09-2.84C5.78,11.51,4.89,9.21,4,6.92c-.09-.22-.13-.25-.37-.25H2a.88.88,0,0,1-.82-.56.79.79,0,0,1,.22-.91A.89.89,0,0,1,2.05,5c.7,0,1.4,0,2.1,0a1.45,1.45,0,0,1,1.18.61,2.26,2.26,0,0,1,.28.56l.3.78a.27.27,0,0,0,.27.18h1c.18,0,.32.19.33,0" transform="translate(0 0)"/><path class="cls-1" d="M7.22,7" transform="translate(0 0)"/><path class="cls-1" d="M7.43,7.09" transform="translate(0 0)"/><path class="cls-1" d="M19.9,8.24c-.53,1.44-1,2.88-1.57,4.31-.21.58-.4,1.16-.63,1.73a.86.86,0,0,1-.92.6H9.18c-.08,0-.13.06-.12.14a1.12,1.12,0,0,0,.21.52c.09.12.24.08.37.08h6.87a.84.84,0,0,1,.84.52.83.83,0,0,1-.21.94c-.15.15-.15.16,0,.34a1.35,1.35,0,0,1,.28,1.11,1.43,1.43,0,0,1-1.12,1.18,1.45,1.45,0,0,1-1.58-.52,1.35,1.35,0,0,1-.12-1.62c.1-.19.08-.23-.15-.23H10.64c-.05,0-.08,0-.1,0h4.07A1.51,1.51,0,0,0,15,19.55a1.6,1.6,0,0,0,2-.17,1.51,1.51,0,0,0,0-2.14.9.9,0,0,0,.38-1.07,1,1,0,0,0-1-.61H9.75c-.45,0-.45,0-.61-.4C9.06,15,9.06,15,9.29,15h7.47a1,1,0,0,0,1-.7c.33-.89.65-1.79,1-2.68L20,8.12C19.91,8.12,19.91,8.19,19.9,8.24Z" transform="translate(0 0)"/><path class="cls-1" d="M15,10.68h2a.62.62,0,0,0,.65-.44c.15-.37.3-.75.44-1.13a.61.61,0,0,0-.62-.86H15a.61.61,0,0,0-.67.63c0,.39,0,.79,0,1.18A.61.61,0,0,0,15,10.68Zm.1-1.82h2.27c.1,0,.15,0,.1.12-.13.33-.26.67-.38,1a.14.14,0,0,1-.15.1H15.07c-.1,0-.12,0-.12-.12,0-.32,0-.64,0-1C14.94,8.88,15,8.86,15.09,8.86Z" transform="translate(0 0)"/><path class="cls-1" d="M6.14,9.11c.14.38.29.77.44,1.15a.64.64,0,0,0,.66.42h2A.61.61,0,0,0,9.9,10c0-.38,0-.75,0-1.13a.62.62,0,0,0-.69-.66H6.75A.61.61,0,0,0,6.14,9.11Zm3-.25c.06,0,.1,0,.1.09,0,.34,0,.69,0,1,0,.09,0,.1-.11.1H7.28c-.06,0-.1,0-.12-.08L6.72,8.86Z" transform="translate(0 0)"/><path class="cls-1" d="M13.05,11.29H11.18a.63.63,0,0,0-.65.64v1.16a.63.63,0,0,0,.66.64H13a.6.6,0,0,0,.64-.62c0-.4,0-.8,0-1.21A.6.6,0,0,0,13.05,11.29Zm-.14,1.83H11.29c-.1,0-.13,0-.13-.12,0-.32,0-.65,0-1,0-.11,0-.12.14-.12h1.62c.11,0,.14,0,.14.13q0,.48,0,1C13.06,13.11,13,13.12,12.91,13.12Z" transform="translate(0 0)"/><path class="cls-1" d="M11.16,10.68h1.89a.59.59,0,0,0,.63-.6c0-.41,0-.81,0-1.22A.6.6,0,0,0,13,8.25H11.15a.6.6,0,0,0-.61.61c0,.4,0,.8,0,1.21A.6.6,0,0,0,11.16,10.68Zm.15-1.82h1.62c.1,0,.13,0,.13.12,0,.32,0,.65,0,1,0,.1,0,.12-.14.12H11.3c-.11,0-.14,0-.14-.13q0-.48,0-1C11.16,8.87,11.2,8.86,11.31,8.86Z" transform="translate(0 0)"/><path class="cls-1" d="M15,13.73h1.18a.63.63,0,0,0,.63-.44q.22-.58.42-1.17a.61.61,0,0,0-.6-.83H15a.62.62,0,0,0-.65.6c0,.41,0,.83,0,1.25A.61.61,0,0,0,15,13.73ZM15,12c0-.07,0-.1.09-.1h1.58c-.15.4-.29.78-.42,1.16,0,.07-.08.06-.13.06h-1c-.08,0-.12,0-.12-.11Z" transform="translate(0 0)"/><path class="cls-1" d="M9.26,11.29H7.91a.62.62,0,0,0-.61.84c.15.4.31.8.47,1.19a.6.6,0,0,0,.61.41h.88a.61.61,0,0,0,.64-.62c0-.4,0-.8,0-1.19A.62.62,0,0,0,9.26,11.29Zm0,1.73c0,.07,0,.1-.11.1H8.44s-.09,0-.1-.06c-.15-.38-.3-.76-.45-1.16H9.17c.08,0,.11,0,.11.1Q9.27,12.51,9.28,13Z" transform="translate(0 0)"/></svg>