<svg id="Layer_1" data-name="Layer 1" xmlns="http://www.w3.org/2000/svg" xmlns:xlink="http://www.w3.org/1999/xlink" viewBox="0 0 317.01 115.6"><defs><style>.cls-1{fill:url(#linear-gradient);}.cls-2{fill:#9dff5e;}.cls-3{fill:#6aff8f;}.cls-4{fill:none;stroke:#0a0404;stroke-miterlimit:10;}.cls-5{fill:#2070e5;}.cls-6{fill:#9d9fa0;}</style><linearGradient id="linear-gradient" x1="167.8" y1="40.68" x2="208.13" y2="40.68" gradientUnits="userSpaceOnUse"><stop offset="0" stop-color="#006837"/><stop offset="0.44" stop-color="#7ac943"/></linearGradient></defs><title>logo verde urbano</title><path class="cls-1" d="M207.89,31.34a.51.51,0,0,0,0-.88,30.5,30.5,0,0,0-7-2.89,27.71,27.71,0,0,0-17.88,1c-5.85,2.36-9.9,3.92-12.31,5.84a7,7,0,0,0-2.72,7.23A1.89,1.89,0,0,0,169.7,43a27.66,27.66,0,0,0,9.08-1.9c4.77-2,7.83-3.6,9.8-4.45l0,0a.52.52,0,0,1,.54.87l-.24.2a43.11,43.11,0,0,1-9.32,5.88,18.44,18.44,0,0,1-9.32,1.66c-.77-.09-1.23.43-.93,1.14,2.9,6.7,9.85,13.27,20.68,3.24a74.1,74.1,0,0,0,7.61-8.26c2.18-2.62,4.08-4.77,5.7-6.35A32.17,32.17,0,0,1,207.89,31.34Z" transform="translate(-0.29 0.05)"/><path class="cls-2" d="M194.26,7.2a.52.52,0,0,0-.38-.8,29.87,29.87,0,0,0-7.57.2,27.87,27.87,0,0,0-16,8.17c-4.44,4.53-7.54,7.6-9,10.34a7,7,0,0,0,.35,7.73,1.86,1.86,0,0,0,2.18.57A27.94,27.94,0,0,0,171.42,28c3.6-3.73,5.76-6.47,7.23-8l0-.05a.51.51,0,0,1,.84.58l-.15.28a43.23,43.23,0,0,1-6.22,9.17,18.6,18.6,0,0,1-7.9,5.3c-.74.24-1,.9-.4,1.43,5.3,5,14.25,8.17,20.24-5.42a76.11,76.11,0,0,0,3.72-10.66,85.49,85.49,0,0,1,2.73-8.13A31.49,31.49,0,0,1,194.26,7.2Z" transform="translate(-0.29 0.05)"/><path class="cls-3" d="M161.05.3a.4.4,0,0,0-.63-.27,24.64,24.64,0,0,0-4.37,4.11,22.6,22.6,0,0,0-5.26,13.25c-.31,5-.56,8.47,0,10.85a5.38,5.38,0,0,0,4.16,4.37,1.47,1.47,0,0,0,1.57-.81,22.48,22.48,0,0,0,1.69-7.19c.22-4.1.1-6.86.16-8.56V16a.4.4,0,0,1,.79-.1l.06.24a34.81,34.81,0,0,1,1,8.7,15.1,15.1,0,0,1-2,7.29c-.31.53-.11,1,.49,1,5.67.14,12.59-2.69,9.18-13.87a60.63,60.63,0,0,0-3.25-8.25c-1.11-2.45-2-4.54-2.55-6.24A25.67,25.67,0,0,1,161.05.3Z" transform="translate(-0.29 0.05)"/><path class="cls-4" d="M254.11,56.32a1.13,1.13,0,0,1-.1-.13c.06-.32.12-.63.19-.94C254.16,55.6,254.12,56,254.11,56.32Z" transform="translate(-0.29 0.05)"/><path class="cls-5" d="M16,61.42.29,20.66H7l7.48,20.07C16.53,46.24,18.31,51.2,19.59,56h.14c1.36-4.71,3.35-9.85,5.49-15.17l8.12-20.14H40L22.8,61.42Z" transform="translate(-0.29 0.05)"/><path class="cls-5" d="M46.09,47.75c.14,7.2,5.56,10.16,11.83,10.16a26.31,26.31,0,0,0,9.54-1.51l1.07,3.81A32.44,32.44,0,0,1,57.06,62c-10.61,0-17-5.93-17-14.75s6.12-15.79,16.17-15.79c11.26,0,14.25,8.41,14.25,13.79a15.7,15.7,0,0,1-.22,2.48Zm18.38-3.81c.07-3.39-1.64-8.65-8.69-8.65-6.34,0-9.12,5-9.62,8.65Z" transform="translate(-0.29 0.05)"/><path class="cls-5" d="M78.29,41.28c0-3.45-.07-6.41-.29-9.13h5.49l.21,5.74H84a10.2,10.2,0,0,1,9.54-6.41,8,8,0,0,1,1.79.18v5a11.25,11.25,0,0,0-2.14-.18,8.32,8.32,0,0,0-8.41,6.84,12.92,12.92,0,0,0-.28,2.47V61.42h-6.2Z" transform="translate(-0.29 0.05)"/><path class="cls-5" d="M130.65,18.48V53.86c0,2.6.07,5.56.29,7.56h-5.63L125,56.34h-.14c-1.92,3.26-6.13,5.74-11.76,5.74-8.33,0-14.74-6-14.74-14.87-.07-9.74,7.05-15.73,15.46-15.73,5.27,0,8.83,2.12,10.4,4.48h.14V18.48Zm-6.27,25.58a8.24,8.24,0,0,0-.28-2.24c-.93-3.38-4.35-6.16-9-6.16-6.49,0-10.33,4.83-10.33,11.3,0,5.93,3.42,10.83,10.19,10.83,4.2,0,8-2.36,9.19-6.35a8.06,8.06,0,0,0,.28-2.3Z" transform="translate(-0.29 0.05)"/><path class="cls-5" d="M144.54,47.75c.14,7.2,5.56,10.16,11.82,10.16a26.37,26.37,0,0,0,9.55-1.51L167,60.21A32.44,32.44,0,0,1,155.51,62c-10.62,0-17-5.93-17-14.75s6.13-15.79,16.18-15.79C166,31.48,169,39.89,169,45.27a17.32,17.32,0,0,1-.21,2.48Zm18.38-3.81c.07-3.39-1.64-8.65-8.69-8.65-6.34,0-9.12,5-9.62,8.65Z" transform="translate(-0.29 0.05)"/><path class="cls-6" d="M108.43,74.13V98.25c0,9.14,4.78,13,11.19,13,7.12,0,11.68-4,11.68-13V74.13h6.27V97.89c0,12.52-7.76,17.66-18.16,17.66-9.84,0-17.25-4.78-17.25-17.42v-24Z" transform="translate(-0.29 0.05)"/><path class="cls-6" d="M148.11,94.75c0-3.45-.07-6.41-.28-9.13h5.48l.22,5.74h.28A10.2,10.2,0,0,1,163.36,85a8,8,0,0,1,1.78.18v5A11.11,11.11,0,0,0,163,90a8.32,8.32,0,0,0-8.41,6.83,13.13,13.13,0,0,0-.28,2.48v15.6h-6.2Z" transform="translate(-0.29 0.05)"/><path class="cls-6" d="M171.4,114.88c.15-2,.29-5,.29-7.55V72h6.2V90.33H178c2.21-3.26,6.2-5.38,11.76-5.38,8.54,0,14.6,6,14.53,14.94,0,10.46-7.77,15.66-15.46,15.66-5,0-9-1.63-11.54-5.5h-.22l-.28,4.83Zm6.49-11.73a8.73,8.73,0,0,0,.28,1.94c1.21,3.69,4.85,6.23,9.41,6.23,6.55,0,10.47-4.54,10.47-11.25,0-5.87-3.56-10.89-10.26-10.89a9.82,9.82,0,0,0-9.55,6.53,9.2,9.2,0,0,0-.35,2.18Z" transform="translate(-0.29 0.05)"/><path class="cls-6" d="M231.31,114.88l-.49-3.68h-.22a13.73,13.73,0,0,1-10.54,4.35c-7,0-10.55-4.17-10.55-8.41,0-7.07,7.41-10.94,20.74-10.88v-.61c0-2.41-.79-6.77-7.84-6.77a19.5,19.5,0,0,0-9,2.18L212,87.55A24.36,24.36,0,0,1,223.33,85c10.55,0,13.11,6.11,13.11,12v11a35.58,35.58,0,0,0,.57,7ZM230.39,100c-6.84-.12-14.61.9-14.61,6.59,0,3.45,2.71,5.08,5.92,5.08,4.48,0,7.34-2.42,8.33-4.9a4.66,4.66,0,0,0,.36-1.69Z" transform="translate(-0.29 0.05)"/><path class="cls-6" d="M246.56,93.54c0-3-.07-5.5-.29-7.92h5.56l.36,4.83h.14C254,87.67,258,85,263.73,85c4.77,0,12.18,2.42,12.18,12.46v17.47h-6.27V98c0-4.71-2.07-8.64-8-8.64a8.79,8.79,0,0,0-8.41,5.44,6.67,6.67,0,0,0-.42,2.48v17.59h-6.27Z" transform="translate(-0.29 0.05)"/><path class="cls-6" d="M317.3,100c0,10.82-8.84,15.54-17.17,15.54-9.34,0-16.53-5.81-16.53-15.06,0-9.79,7.55-15.54,17.1-15.54C310.6,85,317.3,91.06,317.3,100Zm-27.36.3c0,6.41,4.35,11.25,10.47,11.25s10.47-4.78,10.47-11.37c0-5-2.92-11.25-10.33-11.25S289.94,94.75,289.94,100.31Z" transform="translate(-0.29 0.05)"/></svg>